<svg xmlns="http://www.w3.org/2000/svg" xmlns:xlink="http://www.w3.org/1999/xlink" width="500" zoomAndPan="magnify" viewBox="0 0 375 374.999991" height="500" preserveAspectRatio="xMidYMid meet" version="1.0"><defs><clipPath id="819e141abb"><path d="M 187.5 0 C 83.945312 0 0 83.945312 0 187.5 C 0 291.054688 83.945312 375 187.5 375 C 291.054688 375 375 291.054688 375 187.5 C 375 83.945312 291.054688 0 187.5 0 " clip-rule="nonzero"/></clipPath></defs><path stroke-linecap="round" transform="matrix(0.749966, 0, 0, 0.75, 56.616406, 74.350154)" fill="none" stroke-linejoin="miter" d="M 28.002298 28.001879 L 321.020653 28.001879 " stroke="#38b6ff" stroke-width="56" stroke-opacity="1" stroke-miterlimit="4"/><path stroke-linecap="round" transform="matrix(0.000000000000000046, 0.748503, -0.75, 0.000000000000000046, 208.49665, 141.606567)" fill="none" stroke-linejoin="miter" d="M 28.002332 28.000744 L 183.432287 28.000744 " stroke="#38b6ff" stroke-width="56" stroke-opacity="1" stroke-miterlimit="4"/><g clip-path="url(#819e141abb)"><path stroke-linecap="butt" transform="matrix(0.75, 0, 0, 0.75, 0.0000045, 0)" fill="none" stroke-linejoin="miter" d="M 249.999994 0 C 111.927078 0 -0.000006 111.927084 -0.000006 250 C -0.000006 388.072917 111.927078 500.000001 249.999994 500.000001 C 388.072911 500.000001 499.999995 388.072917 499.999995 250 C 499.999995 111.927084 388.072911 0 249.999994 0 " stroke="#38b6ff" stroke-width="30" stroke-opacity="1" stroke-miterlimit="4"/></g></svg>