<svg xmlns="http://www.w3.org/2000/svg" xmlns:xlink="http://www.w3.org/1999/xlink" width="1000" zoomAndPan="magnify" viewBox="0 0 750 266.250005" height="355" preserveAspectRatio="xMidYMid meet" version="1.0"><defs><g/><clipPath id="56aec29331"><path d="M 1.648438 0 L 267.148438 0 L 267.148438 8.28125 L 1.648438 8.28125 Z M 258.691406 8.28125 L 267.148438 8.28125 L 267.148438 257.046875 L 258.691406 257.046875 Z M 1.648438 8.28125 L 9.925781 8.28125 L 9.925781 257.046875 L 1.648438 257.046875 Z M 1.648438 257.046875 L 267.148438 257.046875 L 267.148438 265.503906 L 1.648438 265.503906 Z M 1.648438 257.046875 " clip-rule="nonzero"/></clipPath><clipPath id="9f7cc996e6"><path d="M 263.253906 0 L 748.652344 0 L 748.652344 265.265625 L 263.253906 265.265625 Z M 263.253906 0 " clip-rule="nonzero"/></clipPath></defs><g clip-path="url(#56aec29331)"><path fill="#38b6ff" d="M 1.648438 0 L 267.089844 0 L 267.089844 265.445312 L 1.648438 265.445312 Z M 1.648438 0 " fill-opacity="1" fill-rule="nonzero"/></g><path fill="#38b6ff" d="M 265.023438 1.789062 L 746.882812 1.789062 L 746.882812 263.476562 L 265.023438 263.476562 Z M 265.023438 1.789062 " fill-opacity="1" fill-rule="nonzero"/><g clip-path="url(#9f7cc996e6)"><path fill="#38b6ff" d="M 746.882812 265.246094 L 265.023438 265.246094 C 264.03125 265.246094 263.253906 264.46875 263.253906 263.476562 L 263.253906 1.789062 C 263.253906 0.800781 264.03125 0.0234375 265.023438 0.0234375 L 746.882812 0.0234375 C 747.875 0.0234375 748.652344 0.800781 748.652344 1.789062 L 748.652344 263.476562 C 748.652344 264.46875 747.875 265.246094 746.882812 265.246094 Z M 266.792969 261.707031 L 745.117188 261.707031 L 745.117188 3.558594 L 266.792969 3.558594 Z M 266.792969 261.707031 " fill-opacity="1" fill-rule="nonzero"/></g><path stroke-linecap="round" transform="matrix(0.791682, 0, 0, 0.791841, 41.731423, 52.859398)" fill="none" stroke-linejoin="miter" d="M 18.501716 18.499187 L 215.550425 18.499187 " stroke="#38b6ff" stroke-width="37" stroke-opacity="1" stroke-miterlimit="4"/><path stroke-linecap="round" transform="matrix(0.000000000000000049, 0.793063, -0.791841, 0.000000000000000048, 149.045588, 100.257107)" fill="none" stroke-linejoin="miter" d="M 18.501161 18.497591 L 123.286777 18.497591 " stroke="#38b6ff" stroke-width="37" stroke-opacity="1" stroke-miterlimit="4"/><g fill="#ffffff" fill-opacity="1"><g transform="translate(305.638667, 153.779931)"><g><path d="M 1.199219 -36.988281 L 11.089844 -36.988281 L 11.089844 -0.121094 L 15.289062 -0.121094 L 15.289062 -36.988281 L 25.179688 -36.988281 L 25.179688 -40.886719 L 1.199219 -40.886719 Z M 1.199219 -36.988281 "/></g></g></g><g fill="#ffffff" fill-opacity="1"><g transform="translate(333.210502, 153.779931)"><g><path d="M 26.078125 -13.308594 C 26.078125 -10.671875 25.117188 -8.453125 23.261719 -6.59375 C 21.34375 -4.675781 19.125 -3.777344 16.484375 -3.777344 C 13.847656 -3.777344 11.570312 -4.675781 9.710938 -6.59375 C 7.792969 -8.453125 6.894531 -10.671875 6.894531 -13.308594 C 6.894531 -15.945312 7.792969 -18.164062 9.710938 -20.082031 C 11.570312 -21.941406 13.847656 -22.902344 16.484375 -22.902344 C 19.125 -22.902344 21.34375 -21.941406 23.261719 -20.082031 C 25.117188 -18.164062 26.078125 -15.945312 26.078125 -13.308594 Z M 30.273438 -13.308594 C 30.273438 -17.085938 28.894531 -20.324219 26.199219 -23.019531 C 23.5 -25.71875 20.261719 -27.097656 16.484375 -27.097656 C 12.648438 -27.097656 9.410156 -25.71875 6.714844 -23.019531 C 4.015625 -20.324219 2.699219 -17.085938 2.699219 -13.308594 C 2.699219 -9.472656 4.015625 -6.234375 6.714844 -3.597656 C 9.410156 -0.898438 12.710938 0.417969 16.484375 0.417969 C 20.203125 0.417969 23.5 -0.898438 26.199219 -3.597656 C 28.894531 -6.234375 30.273438 -9.472656 30.273438 -13.308594 Z M 30.273438 -13.308594 "/></g></g></g><g fill="#ffffff" fill-opacity="1"><g transform="translate(367.375514, 153.779931)"><g><path d="M 1.199219 -22.480469 L 7.792969 -22.480469 L 7.792969 0 L 11.988281 0 L 11.988281 -22.480469 L 18.523438 -22.480469 L 18.523438 -26.378906 L 11.988281 -26.378906 L 11.988281 -36.628906 L 7.792969 -36.628906 L 7.792969 -26.378906 L 1.199219 -26.378906 Z M 1.199219 -22.480469 "/></g></g></g><g fill="#ffffff" fill-opacity="1"><g transform="translate(388.294209, 153.779931)"><g><path d="M 25.480469 -13.1875 C 25.480469 -10.609375 24.578125 -8.332031 22.78125 -6.472656 C 20.980469 -4.554688 18.765625 -3.597656 16.1875 -3.597656 C 13.546875 -3.597656 11.332031 -4.554688 9.53125 -6.472656 C 7.734375 -8.332031 6.894531 -10.609375 6.894531 -13.1875 C 6.894531 -15.707031 7.734375 -17.984375 9.53125 -19.902344 C 11.332031 -21.820312 13.546875 -22.78125 16.1875 -22.78125 C 18.765625 -22.78125 20.980469 -21.820312 22.78125 -19.902344 C 24.578125 -17.984375 25.480469 -15.707031 25.480469 -13.1875 Z M 29.675781 0 L 29.675781 -26.378906 L 25.480469 -26.378906 L 25.480469 -21.820312 C 25.238281 -22.179688 24.9375 -22.480469 24.699219 -22.78125 C 22.179688 -25.539062 19.125 -26.976562 15.527344 -26.976562 C 11.871094 -26.976562 8.8125 -25.539062 6.292969 -22.78125 C 3.898438 -20.023438 2.699219 -16.847656 2.699219 -13.1875 C 2.699219 -9.472656 3.898438 -6.292969 6.292969 -3.597656 C 8.8125 -0.78125 11.871094 0.597656 15.527344 0.597656 C 19.125 0.597656 22.179688 -0.78125 24.699219 -3.597656 C 24.9375 -3.835938 25.238281 -4.136719 25.480469 -4.496094 L 25.480469 0 Z M 29.675781 0 "/></g></g></g><g fill="#ffffff" fill-opacity="1"><g transform="translate(423.657976, 153.779931)"><g><path d="M 8.691406 0 L 8.691406 -44.960938 L 4.496094 -44.960938 L 4.496094 0 Z M 8.691406 0 "/></g></g></g><g fill="#ffffff" fill-opacity="1"><g transform="translate(438.043434, 153.779931)"><g/></g></g><g fill="#ffffff" fill-opacity="1"><g transform="translate(455.425791, 153.779931)"><g><path d="M 15.765625 -19.183594 C 21.042969 -17.925781 24.640625 -16.546875 26.558594 -14.988281 C 27.875 -13.910156 28.535156 -12.53125 28.535156 -10.851562 C 28.535156 -9.171875 28.175781 -7.792969 27.457031 -6.835938 C 25.660156 -4.316406 22.421875 -3.058594 17.863281 -3.058594 C 11.511719 -3.058594 7.914062 -5.214844 7.132812 -9.53125 L 2.21875 -9.53125 C 3.65625 -2.636719 8.871094 0.78125 17.863281 0.78125 C 21.882812 0.78125 25.238281 -0.0585938 27.9375 -1.859375 C 31.171875 -3.957031 32.851562 -7.074219 32.851562 -11.152344 C 32.851562 -14.507812 31.535156 -17.085938 28.894531 -18.882812 C 27.039062 -20.203125 24.039062 -21.402344 19.902344 -22.480469 C 15.707031 -23.558594 13.007812 -24.460938 11.75 -25.117188 C 8.992188 -26.496094 7.613281 -28.417969 7.671875 -30.933594 C 7.671875 -32.253906 7.914062 -33.390625 8.511719 -34.230469 C 10.070312 -36.570312 12.828125 -37.769531 16.785156 -37.769531 C 22.359375 -37.769531 25.539062 -35.96875 26.378906 -32.492188 L 30.933594 -32.492188 C 29.433594 -38.367188 24.699219 -41.363281 16.785156 -41.363281 C 13.1875 -41.363281 10.011719 -40.40625 7.375 -38.488281 C 4.675781 -36.570312 3.296875 -33.75 3.296875 -29.914062 C 3.296875 -24.699219 7.492188 -21.101562 15.765625 -19.183594 Z M 15.765625 -19.183594 "/></g></g></g><g fill="#ffffff" fill-opacity="1"><g transform="translate(491.029312, 153.779931)"><g><path d="M 26.078125 -13.308594 C 26.078125 -10.671875 25.117188 -8.453125 23.261719 -6.59375 C 21.34375 -4.675781 19.125 -3.777344 16.484375 -3.777344 C 13.847656 -3.777344 11.570312 -4.675781 9.710938 -6.59375 C 7.792969 -8.453125 6.894531 -10.671875 6.894531 -13.308594 C 6.894531 -15.945312 7.792969 -18.164062 9.710938 -20.082031 C 11.570312 -21.941406 13.847656 -22.902344 16.484375 -22.902344 C 19.125 -22.902344 21.34375 -21.941406 23.261719 -20.082031 C 25.117188 -18.164062 26.078125 -15.945312 26.078125 -13.308594 Z M 30.273438 -13.308594 C 30.273438 -17.085938 28.894531 -20.324219 26.199219 -23.019531 C 23.5 -25.71875 20.261719 -27.097656 16.484375 -27.097656 C 12.648438 -27.097656 9.410156 -25.71875 6.714844 -23.019531 C 4.015625 -20.324219 2.699219 -17.085938 2.699219 -13.308594 C 2.699219 -9.472656 4.015625 -6.234375 6.714844 -3.597656 C 9.410156 -0.898438 12.710938 0.417969 16.484375 0.417969 C 20.203125 0.417969 23.5 -0.898438 26.199219 -3.597656 C 28.894531 -6.234375 30.273438 -9.472656 30.273438 -13.308594 Z M 30.273438 -13.308594 "/></g></g></g><g fill="#ffffff" fill-opacity="1"><g transform="translate(525.194332, 153.779931)"><g><path d="M 8.691406 0 L 8.691406 -44.960938 L 4.496094 -44.960938 L 4.496094 0 Z M 8.691406 0 "/></g></g></g><g fill="#ffffff" fill-opacity="1"><g transform="translate(539.5798, 153.779931)"><g><path d="M 22.722656 -4.496094 L 22.722656 0 L 26.917969 0 L 26.917969 -26.378906 L 22.722656 -26.378906 L 22.722656 -15.347656 C 22.722656 -11.628906 22 -8.8125 20.621094 -6.714844 C 19.304688 -4.675781 16.964844 -3.65625 13.726562 -3.65625 C 11.929688 -3.65625 10.609375 -4.257812 9.832031 -5.457031 C 9.050781 -6.65625 8.691406 -8.152344 8.691406 -9.890625 L 8.691406 -26.378906 L 4.496094 -26.378906 L 4.496094 -9.890625 C 4.496094 -6.835938 5.277344 -4.316406 6.953125 -2.339844 C 8.632812 -0.417969 10.910156 0.539062 13.910156 0.539062 C 17.804688 0.539062 20.742188 -1.140625 22.722656 -4.496094 Z M 22.722656 -4.496094 "/></g></g></g><g fill="#ffffff" fill-opacity="1"><g transform="translate(571.287355, 153.779931)"><g><path d="M 1.199219 -22.480469 L 7.792969 -22.480469 L 7.792969 0 L 11.988281 0 L 11.988281 -22.480469 L 18.523438 -22.480469 L 18.523438 -26.378906 L 11.988281 -26.378906 L 11.988281 -36.628906 L 7.792969 -36.628906 L 7.792969 -26.378906 L 1.199219 -26.378906 Z M 1.199219 -22.480469 "/></g></g></g><g fill="#ffffff" fill-opacity="1"><g transform="translate(592.20606, 153.779931)"><g><path d="M 8.753906 -35.488281 C 8.214844 -35.96875 7.554688 -36.269531 6.835938 -36.269531 C 6.113281 -36.269531 5.457031 -35.96875 4.976562 -35.488281 C 4.4375 -34.949219 4.195312 -34.292969 4.195312 -33.570312 C 4.195312 -32.851562 4.4375 -32.191406 4.976562 -31.714844 C 5.457031 -31.171875 6.113281 -30.933594 6.835938 -30.933594 C 7.554688 -30.933594 8.214844 -31.171875 8.753906 -31.714844 C 9.230469 -32.191406 9.53125 -32.851562 9.53125 -33.570312 C 9.53125 -34.292969 9.230469 -34.949219 8.753906 -35.488281 Z M 8.992188 0 L 8.992188 -26.378906 L 4.796875 -26.378906 L 4.796875 0 Z M 8.992188 0 "/></g></g></g><g fill="#ffffff" fill-opacity="1"><g transform="translate(607.130964, 153.779931)"><g><path d="M 26.078125 -13.308594 C 26.078125 -10.671875 25.117188 -8.453125 23.261719 -6.59375 C 21.34375 -4.675781 19.125 -3.777344 16.484375 -3.777344 C 13.847656 -3.777344 11.570312 -4.675781 9.710938 -6.59375 C 7.792969 -8.453125 6.894531 -10.671875 6.894531 -13.308594 C 6.894531 -15.945312 7.792969 -18.164062 9.710938 -20.082031 C 11.570312 -21.941406 13.847656 -22.902344 16.484375 -22.902344 C 19.125 -22.902344 21.34375 -21.941406 23.261719 -20.082031 C 25.117188 -18.164062 26.078125 -15.945312 26.078125 -13.308594 Z M 30.273438 -13.308594 C 30.273438 -17.085938 28.894531 -20.324219 26.199219 -23.019531 C 23.5 -25.71875 20.261719 -27.097656 16.484375 -27.097656 C 12.648438 -27.097656 9.410156 -25.71875 6.714844 -23.019531 C 4.015625 -20.324219 2.699219 -17.085938 2.699219 -13.308594 C 2.699219 -9.472656 4.015625 -6.234375 6.714844 -3.597656 C 9.410156 -0.898438 12.710938 0.417969 16.484375 0.417969 C 20.203125 0.417969 23.5 -0.898438 26.199219 -3.597656 C 28.894531 -6.234375 30.273438 -9.472656 30.273438 -13.308594 Z M 30.273438 -13.308594 "/></g></g></g><g fill="#ffffff" fill-opacity="1"><g transform="translate(641.295984, 153.779931)"><g><path d="M 22.722656 0 L 26.917969 0 L 26.917969 -16.484375 C 26.917969 -19.542969 26.078125 -22 24.519531 -23.859375 C 23.679688 -24.820312 22.722656 -25.539062 21.582031 -26.078125 C 20.382812 -26.617188 18.882812 -26.917969 17.027344 -26.917969 C 15.105469 -26.917969 13.488281 -26.378906 12.050781 -25.417969 C 10.671875 -24.519531 9.53125 -23.320312 8.691406 -21.820312 L 8.691406 -26.378906 L 4.496094 -26.378906 L 4.496094 0 L 8.691406 0 L 8.691406 -11.03125 C 8.691406 -14.386719 9.292969 -17.027344 10.550781 -19.003906 C 11.269531 -20.082031 12.167969 -20.980469 13.308594 -21.703125 C 14.386719 -22.359375 15.886719 -22.722656 17.683594 -22.722656 C 19.484375 -22.722656 20.742188 -22.0625 21.523438 -20.863281 C 22.300781 -19.664062 22.722656 -18.164062 22.722656 -16.484375 Z M 22.722656 0 "/></g></g></g><g fill="#ffffff" fill-opacity="1"><g transform="translate(673.003539, 153.779931)"><g><path d="M 8.273438 -3.71875 C 7.253906 -4.4375 6.472656 -5.636719 6.054688 -7.375 L 1.617188 -7.375 C 2.519531 -1.917969 5.996094 0.78125 12.109375 0.78125 C 13.546875 0.78125 14.867188 0.660156 16.125 0.300781 C 17.386719 -0.0585938 18.464844 -0.539062 19.484375 -1.199219 C 21.523438 -2.578125 22.542969 -4.675781 22.542969 -7.492188 C 22.542969 -10.371094 21.222656 -12.410156 18.464844 -13.726562 C 17.324219 -14.269531 16.066406 -14.6875 14.6875 -14.988281 C 13.367188 -15.289062 12.109375 -15.648438 10.972656 -16.007812 C 9.773438 -16.367188 8.8125 -16.847656 8.035156 -17.386719 C 7.253906 -17.925781 6.835938 -18.765625 6.835938 -19.964844 C 6.835938 -21.164062 7.3125 -22.0625 8.273438 -22.601562 C 9.230469 -23.199219 10.371094 -23.5 11.628906 -23.5 C 12.949219 -23.5 14.089844 -23.199219 14.988281 -22.722656 C 15.886719 -22.242188 16.605469 -21.28125 17.027344 -19.84375 L 21.523438 -19.84375 C 20.980469 -22.480469 19.84375 -24.339844 18.164062 -25.359375 C 16.425781 -26.4375 14.328125 -26.976562 11.75 -26.976562 C 9.230469 -26.976562 7.015625 -26.257812 5.15625 -24.9375 C 3.355469 -23.558594 2.398438 -21.582031 2.398438 -18.945312 C 2.398438 -17.683594 2.757812 -16.546875 3.417969 -15.585938 C 4.136719 -14.566406 5.15625 -13.789062 6.472656 -13.1875 C 7.671875 -12.648438 8.933594 -12.230469 10.25 -11.871094 C 11.570312 -11.570312 12.828125 -11.210938 14.027344 -10.851562 C 16.726562 -9.953125 18.105469 -8.632812 18.105469 -6.953125 C 18.105469 -4.078125 16.1875 -2.699219 12.347656 -2.699219 C 10.730469 -2.699219 9.351562 -2.996094 8.273438 -3.71875 Z M 8.273438 -3.71875 "/></g></g></g></svg>